<svg height="464pt" viewBox="-11 0 463 464" width="464pt" xmlns="http://www.w3.org/2000/svg">
    <path d="m388.5 12h-296c-22 0-40 18-40 40v360c0 22 18 40 40 40h296c22 0 40-18 40-40v-360c0-22-18-40-40-40zm0 0" fill="#fff" />
    <g fill="#d3d8dd">
        <path d="m348.5 372h-140c-6.800781 0-12-5.199219-12-12s5.199219-12 12-12h140c6.800781 0 12 5.199219 12 12s-5.199219 12-12 12zm0 0" />
        <path d="m348.5 132h-140c-6.800781 0-12-5.199219-12-12s5.199219-12 12-12h140c6.800781 0 12 5.199219 12 12s-5.199219 12-12 12zm0 0" />
        <path d="m348.5 312h-140c-6.800781 0-12-5.199219-12-12s5.199219-12 12-12h140c6.800781 0 12 5.199219 12 12s-5.199219 12-12 12zm0 0" />
        <path d="m348.5 192h-140c-6.800781 0-12-5.199219-12-12s5.199219-12 12-12h140c6.800781 0 12 5.199219 12 12s-5.199219 12-12 12zm0 0" />
        <path d="m348.5 252h-140c-6.800781 0-12-5.199219-12-12s5.199219-12 12-12h140c6.800781 0 12 5.199219 12 12s-5.199219 12-12 12zm0 0" />
    </g>
    <path d="m140.5 412c-6.800781 0-12-5.199219-12-12v-336c0-6.800781 5.199219-12 12-12s12 5.199219 12 12v336c0 6.800781-5.199219 12-12 12zm0 0" fill="#ff5576" />
    <path d="m388.5 0h-296c-28.800781 0-52 23.199219-52 52v28h-8c-17.601562 0-32 14.398438-32 32s14.398438 32 32 32h8v176h-8c-17.601562 0-32 14.398438-32 32s14.398438 32 32 32h8v28c0 28.800781 23.199219 52 52 52h296c28.800781 0 52-23.199219 52-52v-360c0-28.800781-23.199219-52-52-52zm28 412c0 15.601562-12.398438 28-28 28h-296c-15.601562 0-28-12.398438-28-28v-28h8c17.601562 0 32-14.398438 32-32 0-6.800781-5.199219-12-12-12s-12 5.199219-12 12c0 4.398438-3.601562 8-8 8h-40c-4.398438 0-8-3.601562-8-8s3.601562-8 8-8h20c6.800781 0 12-5.199219 12-12v-188h8c17.601562 0 32-14.398438 32-32 0-6.800781-5.199219-12-12-12s-12 5.199219-12 12c0 4.398438-3.601562 8-8 8h-40c-4.398438 0-8-3.601562-8-8s3.601562-8 8-8h20c6.800781 0 12-5.199219 12-12v-40c0-15.601562 12.398438-28 28-28h296c15.601562 0 28 12.398438 28 28zm0 0" fill="#444b54" />
</svg>